<svg width="46" height="46" viewBox="0 0 46 46" fill="none" xmlns="http://www.w3.org/2000/svg">
<path d="M25.3086 14.2519C27.0925 14.2519 28.8035 14.9606 30.0649 16.222C31.3264 17.4835 32.0351 19.1944 32.0351 20.9784C32.0351 21.573 32.2713 22.1433 32.6918 22.5638C33.1123 22.9843 33.6826 23.2205 34.2772 23.2205C34.8719 23.2205 35.4422 22.9843 35.8627 22.5638C36.2831 22.1433 36.5194 21.573 36.5194 20.9784C36.5194 18.0051 35.3382 15.1536 33.2358 13.0511C31.1334 10.9487 28.2819 9.76758 25.3086 9.76758C24.7139 9.76758 24.1436 10.0038 23.7231 10.4243C23.3026 10.8448 23.0664 11.4151 23.0664 12.0097C23.0664 12.6044 23.3026 13.1747 23.7231 13.5952C24.1436 14.0157 24.7139 14.2519 25.3086 14.2519Z" fill="#232121"/>
<path d="M25.3073 5.28217C29.4699 5.28217 33.462 6.93576 36.4055 9.87917C39.3489 12.8226 41.0024 16.8147 41.0024 20.9773C41.0024 21.572 41.2387 22.1423 41.6592 22.5627C42.0796 22.9832 42.65 23.2195 43.2446 23.2195C43.8393 23.2195 44.4096 22.9832 44.8301 22.5627C45.2505 22.1423 45.4868 21.572 45.4868 20.9773C45.4868 15.6254 43.3607 10.4927 39.5763 6.70828C35.792 2.92389 30.6592 0.797852 25.3073 0.797852C24.7127 0.797852 24.1424 1.03408 23.7219 1.45457C23.3014 1.87505 23.0652 2.44535 23.0652 3.04001C23.0652 3.63467 23.3014 4.20497 23.7219 4.62546C24.1424 5.04595 24.7127 5.28217 25.3073 5.28217ZM44.9262 31.9863C44.8029 31.6264 44.59 31.3037 44.3076 31.0488C44.0252 30.7938 43.6825 30.6149 43.3119 30.5289L29.8589 27.4571C29.4937 27.3744 29.1137 27.3843 28.7533 27.4862C28.393 27.588 28.0639 27.7784 27.7961 28.0401C27.4822 28.3316 27.4598 28.354 26.0024 31.1343C21.1665 28.9059 17.2916 25.0151 15.0831 20.1701C17.9306 18.7351 17.953 18.7351 18.2445 18.3988C18.5062 18.131 18.6966 17.8019 18.7985 17.4416C18.9003 17.0813 18.9103 16.7012 18.8275 16.336L15.7557 3.04001C15.6697 2.66937 15.4908 2.32672 15.2359 2.04429C14.9809 1.76187 14.6583 1.54898 14.2983 1.42566C13.7747 1.23864 13.234 1.10346 12.684 1.02207C12.1173 0.890666 11.539 0.815563 10.9575 0.797852C8.22207 0.797852 5.59868 1.8845 3.66444 3.81874C1.7302 5.75297 0.643555 8.37637 0.643555 11.1118C0.65542 20.2659 4.29713 29.0417 10.7701 35.5146C17.243 41.9875 26.0187 45.6292 35.1728 45.6411C36.5273 45.6411 37.8685 45.3743 39.1198 44.856C40.3711 44.3377 41.5081 43.5779 42.4659 42.6202C43.4236 41.6625 44.1833 40.5255 44.7017 39.2741C45.22 38.0228 45.4868 36.6816 45.4868 35.3271C45.4875 34.7564 45.4425 34.1866 45.3522 33.6231C45.258 33.0662 45.1155 32.5185 44.9262 31.9863Z" fill="#232121"/>
</svg>
