<svg width="859" height="81" viewBox="0 0 859 81" fill="none" xmlns="http://www.w3.org/2000/svg">
<path d="M8.9 40.16C8.27 40.16 7.57 40.44 7.01 41.14C5.19 43.17 2.88 45.9 3.58 48.84C4.28 51.99 7.71 52.69 10.44 52.69C14.5 52.69 18.56 51.01 22.06 48.77C21.99 49.4 21.85 49.96 21.64 50.59C13.59 55.07 6.66 61.79 1.06 69.35C-0.55 71.45 1.76 73.62 3.86 73.62H4.35C13.03 72.15 22.2 63.96 26.12 54.72C32.28 51.64 38.09 50.45 44.95 50.45C48.66 50.59 48.66 44.78 44.95 44.64C38.93 44.64 33.54 45.41 27.94 47.58C28.08 45.9 28.01 44.22 27.66 42.54C27.38 41.07 26.33 40.44 25.21 40.44C24.86 40.44 24.58 40.51 24.23 40.65C23.74 40.65 23.18 40.86 22.69 41.28C19.05 44.22 14.5 46.81 9.74 46.81C10.16 46.25 10.72 45.69 11.14 45.27C12.96 43.1 11.07 40.16 8.9 40.16ZM49.0373 37.01C48.5473 37.01 47.9873 37.15 47.4973 37.5C44.3473 39.46 41.8973 42.19 41.5473 46.04C41.3373 48.84 43.0173 51.71 45.3973 53.11C46.3073 53.6 47.2873 53.88 48.2673 53.88C51.8373 53.88 54.2873 50.73 54.8473 47.51C58.2773 48.49 62.1273 48.84 65.8373 48.84C68.7073 48.84 71.5073 48.63 73.9573 48.42C77.7373 48.07 77.8773 42.33 74.3073 42.33H73.9573C71.5073 42.61 68.3573 42.89 65.1373 42.89C60.1673 42.89 55.0573 42.19 51.8373 39.39C51.4873 38.13 50.3673 37.01 49.0373 37.01ZM48.2673 44.78L48.8973 45.41C48.8273 45.48 48.9673 45.83 48.8973 45.97C48.8273 46.46 48.6873 46.88 48.5473 47.37C48.6173 47.02 48.3373 47.51 48.2673 47.72C48.1973 47.65 48.0573 47.58 47.9873 47.51C47.9173 47.44 47.9173 47.37 47.8473 47.23C47.8473 47.23 47.6373 46.81 47.6373 46.67V46.32C47.6373 46.32 47.7073 45.69 47.7773 45.41C47.9173 45.2 48.0573 44.99 48.2673 44.78ZM85.6277 49.82C85.9077 52.27 88.0777 52.48 89.9677 52.48C97.0377 52.48 103.688 49.19 110.688 48.07C114.188 47.51 112.928 42.47 109.638 42.47H109.148C103.198 43.45 97.4577 46.11 91.4377 46.6C91.5077 45.55 91.6477 44.57 91.8577 43.59C92.2777 41.42 90.4577 39.95 88.7077 39.95C88.2877 39.95 87.8677 40.09 87.5177 40.23C87.0977 40.37 86.7477 40.65 86.3977 41.07C84.5077 43.31 79.2577 48 75.9677 48C75.8977 48 75.7577 48 75.6877 47.93C75.5477 47.93 75.4777 47.93 75.4777 47.72C75.4777 47.72 75.4777 47.09 75.6177 46.6C76.0377 44.85 77.6477 43.52 79.0477 42.61C81.6377 40.86 80.0277 37.08 77.6477 37.08C77.1577 37.08 76.6677 37.22 76.1077 37.57C71.7677 40.44 66.8677 47.09 71.4877 51.99C72.6077 53.25 74.2877 53.74 75.9677 53.74C79.3977 53.74 82.9677 51.85 85.6277 49.82ZM116.139 41.35C115.859 41.35 115.509 41.42 115.229 41.49C113.409 42.19 111.659 42.82 109.839 43.38C106.619 44.36 107.599 49.05 110.399 49.05C110.679 49.05 111.029 48.98 111.309 48.84L113.409 48.21C114.249 50.31 116.139 50.87 118.239 50.87C117.679 52.2 117.119 53.46 116.629 54.79C115.859 56.82 117.679 58.29 119.499 58.29C120.199 58.29 120.899 58.08 121.389 57.52C126.919 52.41 133.639 51.01 140.779 51.01C142.109 51.01 143.439 51.01 144.769 51.08C144.839 51.15 144.909 51.15 144.979 51.15C148.479 51.15 148.339 45.62 144.769 45.41C143.439 45.34 142.179 45.27 140.849 45.27C135.669 45.27 130.699 46.04 126.079 47.93C126.359 47.44 126.569 47.02 126.849 46.53C128.179 44.5 126.289 42.33 124.259 42.33C123.629 42.33 122.929 42.54 122.369 43.1C121.949 43.52 119.639 45.34 118.939 45.34C118.729 45.34 118.659 45.2 118.729 45.06C119.079 43.38 117.819 41.35 116.139 41.35ZM171.193 6.7C161.673 8.03 152.083 8.38 142.633 9.71C138.993 10.13 140.323 15.38 143.683 15.38H144.173C152.923 14.19 161.743 13.91 170.493 12.72C195.343 9.29 220.263 5.93 245.393 5.93C247.913 5.93 250.363 6 252.883 6.07C256.663 6.14 256.663 0.259996 252.883 0.119998C250.503 0.119998 248.053 0.0499948 245.673 0.0499948C220.683 0.0499948 195.903 3.34 171.193 6.7ZM161.813 78.03C165.523 66.06 170.213 54.3 175.953 43.17C182.813 41.91 189.673 41.07 196.673 41.07C200.453 41.07 200.453 35.19 196.673 35.19C190.933 35.19 185.193 35.68 179.523 36.59C183.793 29.31 189.183 22.52 196.393 18.32C199.123 16.71 197.443 12.79 194.853 12.79C194.433 12.79 193.943 12.93 193.383 13.21C183.793 18.81 177.353 28.33 172.103 37.85C167.833 38.62 163.633 39.53 159.363 40.3C155.863 40.93 157.053 46.04 160.343 46.04C160.553 46.04 160.763 46.04 160.973 45.97C163.493 45.48 166.083 44.99 168.673 44.5C163.563 54.72 159.503 65.64 156.143 76.49C155.443 78.66 157.263 80.13 159.013 80.13C160.203 80.13 161.393 79.5 161.813 78.03ZM228.987 37.29C223.177 37.29 217.017 41.42 214.917 46.6C214.287 48.07 214.287 50.03 215.267 51.43C216.597 53.25 218.627 53.88 220.797 53.88C225.487 53.88 229.897 52.13 233.537 49.33C235.007 51.92 237.457 52.41 240.187 52.41C245.717 52.41 251.527 49.75 256.287 47.58C259.507 46.04 257.477 41.7 254.467 41.7C253.977 41.7 253.487 41.77 252.997 41.98C249.987 43.38 243.267 46.04 239.977 46.04C238.087 46.04 238.507 44.43 238.717 42.05C238.857 39.95 237.317 38.97 235.707 38.97C235.497 38.97 235.217 38.97 234.937 39.04C233.117 37.85 231.087 37.29 228.987 37.29ZM226.607 44.22C227.097 44.01 227.657 43.87 228.217 43.8C228.287 43.8 228.777 43.73 228.917 43.73H229.547C229.617 43.8 230.037 43.8 230.177 43.87C228.007 45.9 224.857 46.95 221.917 47.37C222.407 46.81 222.897 46.39 223.457 45.9C224.227 45.34 225.067 44.92 225.907 44.5C225.977 44.43 226.467 44.22 226.607 44.22ZM289.976 46.46C293.546 46.18 293.686 40.72 290.256 40.72H289.976C288.016 40.86 285.986 40.93 283.956 40.93H279.126C274.856 40.93 270.586 41.07 266.526 42.4C263.866 43.24 261.906 45.9 259.736 47.51C259.526 47.65 259.386 47.72 259.246 47.72C257.636 47.72 257.566 40.72 257.426 39.67C257.216 37.85 255.676 36.94 254.206 36.94C252.806 36.94 251.406 37.85 251.616 39.67C252.106 43.87 252.176 53.88 258.266 53.88C258.826 53.88 259.386 53.81 260.086 53.6C264.006 52.55 266.036 48.63 269.816 47.37C272.336 46.6 275.066 46.39 277.866 46.39C280.806 46.39 283.816 46.6 286.686 46.6C287.806 46.6 288.926 46.6 289.976 46.46ZM291.303 37.01C290.813 37.01 290.253 37.15 289.763 37.5C286.613 39.46 284.163 42.19 283.813 46.04C283.603 48.84 285.283 51.71 287.663 53.11C288.573 53.6 289.553 53.88 290.533 53.88C294.103 53.88 296.553 50.73 297.113 47.51C300.543 48.49 304.393 48.84 308.103 48.84C310.973 48.84 313.773 48.63 316.223 48.42C320.003 48.07 320.143 42.33 316.573 42.33H316.223C313.773 42.61 310.623 42.89 307.403 42.89C302.433 42.89 297.323 42.19 294.103 39.39C293.753 38.13 292.633 37.01 291.303 37.01ZM290.533 44.78L291.163 45.41C291.093 45.48 291.233 45.83 291.163 45.97C291.093 46.46 290.953 46.88 290.813 47.37C290.883 47.02 290.603 47.51 290.533 47.72C290.463 47.65 290.323 47.58 290.253 47.51C290.183 47.44 290.183 47.37 290.113 47.23C290.113 47.23 289.903 46.81 289.903 46.67V46.32C289.903 46.32 289.973 45.69 290.043 45.41C290.183 45.2 290.323 44.99 290.533 44.78ZM323.063 41.35C322.783 41.35 322.433 41.42 322.153 41.49C320.333 42.19 318.583 42.82 316.763 43.38C313.543 44.36 314.523 49.05 317.323 49.05C317.603 49.05 317.953 48.98 318.233 48.84L320.333 48.21C321.173 50.31 323.063 50.87 325.163 50.87C324.603 52.2 324.043 53.46 323.553 54.79C322.783 56.82 324.603 58.29 326.423 58.29C327.123 58.29 327.823 58.08 328.313 57.52C333.843 52.41 340.563 51.01 347.703 51.01C349.033 51.01 350.363 51.01 351.693 51.08C351.763 51.15 351.833 51.15 351.903 51.15C355.403 51.15 355.263 45.62 351.693 45.41C350.363 45.34 349.103 45.27 347.773 45.27C342.593 45.27 337.623 46.04 333.003 47.93C333.283 47.44 333.493 47.02 333.773 46.53C335.103 44.5 333.213 42.33 331.183 42.33C330.553 42.33 329.853 42.54 329.293 43.1C328.873 43.52 326.563 45.34 325.863 45.34C325.653 45.34 325.583 45.2 325.653 45.06C326.003 43.38 324.743 41.35 323.063 41.35ZM356.557 40.93C357.397 38.83 355.647 37.43 353.827 37.43C352.637 37.43 351.447 38.06 350.887 39.39C349.207 43.45 345.917 53.81 353.477 53.81H353.827C356.977 53.67 360.197 52.34 363.137 51.36C367.477 49.96 371.817 48.98 376.227 48C379.727 47.23 378.607 42.26 375.387 42.26C373.007 42.26 361.667 45.69 358.797 46.6C357.047 47.16 355.157 47.86 353.267 47.93C355.017 47.86 355.857 42.75 356.557 40.93ZM353.547 28.4C353.267 28.89 353.127 29.59 353.197 30.22C352.987 31.62 353.757 32.81 355.017 33.37C355.507 33.72 356.207 34 356.907 34C358.237 34 359.427 32.95 359.847 31.69C360.197 30.78 360.197 29.52 359.567 28.68C359.147 28.05 358.027 27.14 357.187 27.21C356.767 27.07 356.417 27 355.997 27C355.017 27 354.037 27.56 353.547 28.4ZM396.361 47.37C399.371 46.67 398.391 42.12 395.591 42.12C395.381 42.12 395.171 42.19 394.961 42.26C389.991 43.45 385.231 45.48 380.331 47.02C384.181 40.65 388.731 34.7 393.561 28.96C399.511 29.24 405.531 29.87 410.851 31.34C411.131 31.41 411.411 31.41 411.621 31.41C414.281 31.41 415.191 27 412.251 26.16C407.771 24.9 402.871 24.2 397.971 23.85C402.801 18.39 407.701 13 412.391 7.47C414.001 5.51 412.321 2.85 410.431 2.85C409.801 2.85 409.241 3.13 408.681 3.69C403.081 10.34 397.061 16.85 391.321 23.57C387.261 23.57 383.201 23.57 379.141 23.71C370.951 23.92 361.221 24.06 353.731 27.77C351.141 29.1 352.751 32.67 355.131 32.67C355.551 32.67 355.971 32.6 356.321 32.39C363.461 28.89 373.331 29.17 381.031 28.96C382.921 28.96 384.881 28.89 386.841 28.89C381.521 35.47 376.621 42.4 372.701 49.89C371.721 51.85 373.121 53.88 375.081 53.88C375.291 53.88 375.431 53.88 375.641 53.81C382.781 52.41 389.291 49.12 396.361 47.37ZM407.652 43.59C407.722 43.52 407.722 43.45 407.792 43.45C408.632 42.33 408.632 40.86 407.722 39.81C407.512 39.53 407.162 39.32 406.882 39.18C405.972 37.85 403.242 37.08 401.772 37.08C395.052 37.08 391.062 47.02 397.642 51.99C399.532 53.39 401.702 53.95 404.082 53.95C411.992 53.95 421.862 47.93 428.302 48C431.802 48.07 431.802 42.54 428.302 42.47H428.092C422.212 42.47 417.242 44.85 411.782 46.53C409.262 47.3 406.462 48 403.802 48C403.102 48 402.402 47.93 401.702 47.72C403.662 47.37 406.322 45.06 407.652 43.59ZM577.232 57.73C581.082 57.73 580.942 51.5 576.882 51.15C575.552 51.01 574.292 51.01 572.962 51.01C563.162 51.01 554.132 54.09 545.452 58.92C537.262 63.33 529.772 68.72 521.162 72.01C525.292 60.81 531.102 50.8 538.312 41.14C542.302 35.89 551.052 26.37 547.342 19.16C546.082 16.64 543.702 15.73 540.902 15.73C533.622 15.73 522.982 21.75 516.752 26.16C518.152 23.15 519.342 20.14 520.252 16.99C522.912 7.75 518.292 0.329995 509.332 0.329995C508.492 0.329995 507.582 0.399999 506.602 0.539997C490.432 2.99 475.522 15.31 463.412 25.53C448.152 38.55 435.272 54.44 425.192 71.73C423.722 74.25 425.962 76.63 428.202 76.63C429.182 76.63 430.162 76.14 430.862 75.02C446.472 48.35 469.852 23.29 498.132 9.92C501.422 8.45 505.482 6.77 509.262 6.77C510.382 6.77 511.432 6.91 512.482 7.26C516.472 8.45 513.812 15.66 513.042 18.04C510.172 26.72 504.782 34.7 498.762 42.12C496.312 44.78 493.932 47.58 491.762 50.31C488.962 53.39 486.232 56.4 483.642 59.27C481.472 61.72 483.642 64.94 486.092 64.94C486.792 64.94 487.562 64.66 488.262 63.89C489.872 62.07 491.622 60.18 493.302 58.29C493.722 58.15 494.072 57.8 494.422 57.38L497.152 54.02C498.482 52.48 499.812 50.94 501.142 49.33C509.542 39.88 527.532 22.66 541.322 22.66C542.302 22.66 541.602 23.64 541.042 25.04C538.032 31.97 532.572 37.92 528.162 43.94C521.162 53.53 516.262 64.8 512.902 76.14C512.202 78.31 514.022 80.2 516.122 80.2C516.402 80.2 516.612 80.2 516.892 80.13C537.402 75.44 552.032 57.52 573.592 57.52C574.712 57.52 575.762 57.59 576.882 57.66C577.022 57.73 577.092 57.73 577.232 57.73ZM598.596 49.82C598.876 52.27 601.046 52.48 602.936 52.48C610.006 52.48 616.656 49.19 623.656 48.07C627.156 47.51 625.896 42.47 622.606 42.47H622.116C616.166 43.45 610.426 46.11 604.406 46.6C604.476 45.55 604.616 44.57 604.826 43.59C605.246 41.42 603.426 39.95 601.676 39.95C601.256 39.95 600.836 40.09 600.486 40.23C600.066 40.37 599.716 40.65 599.366 41.07C597.476 43.31 592.226 48 588.936 48C588.866 48 588.726 48 588.656 47.93C588.516 47.93 588.446 47.93 588.446 47.72C588.446 47.72 588.446 47.09 588.586 46.6C589.006 44.85 590.616 43.52 592.016 42.61C594.606 40.86 592.996 37.08 590.616 37.08C590.126 37.08 589.636 37.22 589.076 37.57C584.736 40.44 579.836 47.09 584.456 51.99C585.576 53.25 587.256 53.74 588.936 53.74C592.366 53.74 595.936 51.85 598.596 49.82ZM622.598 47.44C621.758 47.86 620.918 48.28 620.148 48.7C619.798 48.91 619.518 49.12 619.238 49.47C616.788 50.59 618.328 53.88 620.638 53.88C621.898 53.88 623.928 52.41 624.838 51.71C631.068 48.56 637.998 46.6 644.998 46.6C645.698 46.6 646.398 46.67 647.098 46.67H647.308C650.248 46.67 650.178 41.98 647.098 41.84C646.328 41.77 645.628 41.77 644.858 41.77C639.118 41.77 633.448 42.96 628.058 44.99C627.778 44.43 627.288 43.94 626.588 43.45C625.748 42.89 624.978 42.4 624.138 41.84C626.658 41.35 626.448 37.15 623.508 37.08H622.668C620.708 37.08 618.678 37.29 617.418 39.04C616.088 40.72 617.698 42.89 618.958 44.01C620.218 45.13 621.618 46.04 622.948 47.09L622.598 47.44ZM660.21 40.93C661.05 38.83 659.3 37.43 657.48 37.43C656.29 37.43 655.1 38.06 654.54 39.39C652.86 43.45 649.57 53.81 657.13 53.81H657.48C660.63 53.67 663.85 52.34 666.79 51.36C671.13 49.96 675.47 48.98 679.88 48C683.38 47.23 682.26 42.26 679.04 42.26C676.66 42.26 665.32 45.69 662.45 46.6C660.7 47.16 658.81 47.86 656.92 47.93C658.67 47.86 659.51 42.75 660.21 40.93ZM657.2 28.4C656.92 28.89 656.78 29.59 656.85 30.22C656.64 31.62 657.41 32.81 658.67 33.37C659.16 33.72 659.86 34 660.56 34C661.89 34 663.08 32.95 663.5 31.69C663.85 30.78 663.85 29.52 663.22 28.68C662.8 28.05 661.68 27.14 660.84 27.21C660.42 27.07 660.07 27 659.65 27C658.67 27 657.69 27.56 657.2 28.4ZM683.984 53.6C691.054 53.6 699.524 47.44 705.754 47.16C709.044 47.02 709.114 41.98 705.894 41.98C701.134 41.98 695.814 44.08 691.544 46.04C689.654 46.81 685.734 48.42 683.704 48.42C679.364 48.42 681.954 42.12 684.754 42.12C685.104 42.12 685.454 42.19 685.734 42.4C686.154 42.68 686.644 42.75 687.064 42.75C689.304 42.75 690.844 39.32 688.394 37.92C687.274 37.29 686.154 37.01 685.104 37.01C678.524 37.01 672.224 46.6 678.034 51.5C679.784 53.04 681.814 53.6 683.984 53.6ZM709.838 40.93C710.678 38.83 708.928 37.43 707.108 37.43C705.918 37.43 704.728 38.06 704.168 39.39C702.488 43.45 699.198 53.81 706.758 53.81H707.108C710.258 53.67 713.478 52.34 716.418 51.36C720.758 49.96 725.098 48.98 729.508 48C733.008 47.23 731.888 42.26 728.668 42.26C726.288 42.26 714.948 45.69 712.078 46.6C710.328 47.16 708.438 47.86 706.548 47.93C708.298 47.86 709.138 42.75 709.838 40.93ZM706.828 28.4C706.548 28.89 706.408 29.59 706.478 30.22C706.268 31.62 707.038 32.81 708.298 33.37C708.788 33.72 709.488 34 710.188 34C711.518 34 712.708 32.95 713.128 31.69C713.478 30.78 713.478 29.52 712.848 28.68C712.428 28.05 711.308 27.14 710.468 27.21C710.048 27.07 709.698 27 709.278 27C708.298 27 707.318 27.56 706.828 28.4ZM739.563 37.29C733.753 37.29 727.593 41.42 725.493 46.6C724.863 48.07 724.863 50.03 725.843 51.43C727.173 53.25 729.203 53.88 731.373 53.88C736.063 53.88 740.473 52.13 744.113 49.33C745.583 51.92 748.033 52.41 750.763 52.41C756.293 52.41 762.103 49.75 766.863 47.58C770.083 46.04 768.053 41.7 765.043 41.7C764.553 41.7 764.063 41.77 763.573 41.98C760.563 43.38 753.843 46.04 750.553 46.04C748.663 46.04 749.083 44.43 749.293 42.05C749.433 39.95 747.893 38.97 746.283 38.97C746.073 38.97 745.793 38.97 745.513 39.04C743.693 37.85 741.663 37.29 739.563 37.29ZM737.183 44.22C737.673 44.01 738.233 43.87 738.793 43.8C738.863 43.8 739.353 43.73 739.493 43.73H740.123C740.193 43.8 740.613 43.8 740.753 43.87C738.583 45.9 735.433 46.95 732.493 47.37C732.983 46.81 733.473 46.39 734.033 45.9C734.803 45.34 735.643 44.92 736.483 44.5C736.553 44.43 737.043 44.22 737.183 44.22ZM771.152 37.15C770.032 37.15 769.262 37.64 768.842 38.41C768.842 38.48 768.772 38.48 768.702 38.55C766.322 41.84 764.572 45.48 762.612 48.98C761.632 50.73 762.612 52.34 764.012 52.97C764.432 53.25 764.922 53.39 765.482 53.39C766.112 53.39 766.742 53.18 767.372 52.55C770.172 49.89 778.782 43.31 783.052 43.31C783.682 43.31 784.032 43.59 783.892 44.22C783.402 45.97 782.002 48.07 782.772 49.96C783.892 52.76 785.782 53.88 788.372 53.88C789.072 53.88 789.772 53.81 790.542 53.67C792.852 53.25 795.022 51.78 797.192 50.87C801.042 49.4 805.172 48.49 809.022 47.16C812.172 46.11 811.262 41.49 808.462 41.49C808.182 41.49 807.902 41.56 807.552 41.7C801.392 43.8 795.162 46.18 789.002 48.14C788.792 48.21 789.772 43.8 789.772 42.89C789.772 39.39 785.712 37.36 782.702 37.36C779.972 37.36 777.032 38.48 774.162 40.16C774.232 39.39 773.882 38.69 773.392 38.2C772.902 37.57 772.202 37.15 771.152 37.15Z" fill="white"/>
<path d="M815.635 17.315V38H811.505V17.315H804.085V13.535H823.055V17.315H815.635ZM831.648 38H827.518V13.535H833.958L841.343 28.9L848.728 13.535H855.133V38H851.003V18.89L842.463 35.865H840.153L831.648 18.89V38Z" fill="white"/>
</svg>
