<svg width="59" height="41" viewBox="0 0 59 41" fill="none" xmlns="http://www.w3.org/2000/svg">
<path d="M59 10.6379V33.1154C59 35.2065 58.0287 37.212 56.2999 38.6907C54.571 40.1693 52.2262 41 49.7812 41H9.21875C6.77379 41 4.42896 40.1693 2.70011 38.6907C0.971258 37.212 0 35.2065 0 33.1154V10.6379L28.5634 25.0132C28.8471 25.1563 29.1706 25.2318 29.5 25.2318C29.8294 25.2318 30.1529 25.1563 30.4366 25.0132L59 10.6379ZM49.7812 9.762e-08C52.0496 -0.000305027 54.2385 0.714682 55.9291 2.00818C57.6197 3.30168 58.6934 5.08287 58.9447 7.011L29.5 21.8246L0.0553129 7.011C0.306646 5.08287 1.38032 3.30168 3.07093 2.00818C4.76154 0.714682 6.9504 -0.000305027 9.21875 9.762e-08H49.7812Z" fill="white" fill-opacity="0.65"/>
</svg>
