<svg width="45" height="46" viewBox="0 0 45 46" fill="none" xmlns="http://www.w3.org/2000/svg">
<path d="M15.1001 15.0509C15.3085 14.9187 15.5463 14.8402 15.7924 14.8223C16.0385 14.8044 16.2852 14.8477 16.5105 14.9484C16.7358 15.049 16.9326 15.2039 17.0835 15.3991C17.2344 15.5944 17.3346 15.8239 17.3751 16.0673L17.7937 18.5666C17.8414 18.851 17.8059 19.1432 17.6913 19.4079C17.5767 19.6726 17.388 19.8985 17.1479 20.0583L15.6502 21.0569C15.2844 19.8173 15.0992 18.5316 15.1001 17.2392V15.0509Z" fill="#232121"/>
<path d="M28.5525 30.6924C27.2602 30.6934 25.9744 30.5081 24.7349 30.1424L25.7334 28.6476C25.8928 28.407 26.1186 28.2176 26.3833 28.1025C26.648 27.9874 26.9404 27.9514 27.2252 27.9989L29.7244 28.4174C29.9678 28.458 30.1974 28.5582 30.3926 28.7091C30.5878 28.8599 30.7427 29.0568 30.8433 29.2821C30.944 29.5074 30.9873 29.754 30.9694 30.0001C30.9516 30.2462 30.873 30.4841 30.7409 30.6924H28.5525Z" fill="#232121"/>
<path fill-rule="evenodd" clip-rule="evenodd" d="M0.152367 23.2185C0.15259 18.2075 1.83139 13.341 4.92082 9.39578C8.01026 5.45051 12.3322 2.65384 17.197 1.45215C22.0617 0.250455 27.1888 0.712994 31.7599 2.76594C36.331 4.81889 40.0827 8.34392 42.4162 12.7784C44.7496 17.2129 45.5304 22.3013 44.6337 27.2314C43.7371 32.1615 41.2149 36.6491 37.4695 39.9781C33.7242 43.3071 28.9716 45.2855 23.9704 45.5976C18.9692 45.9096 14.0075 44.5374 9.87737 41.6999L2.31381 45.4816C2.03353 45.6205 1.71675 45.668 1.40808 45.6173C1.09942 45.5666 0.814425 45.4204 0.593245 45.1992C0.372065 44.978 0.225844 44.693 0.175176 44.3844C0.124509 44.0757 0.171948 43.7589 0.310813 43.4787L4.09259 35.9151C1.52022 32.1813 0.145851 27.7526 0.152367 23.2185ZM12.7982 12.9942L13.414 12.5817C14.037 12.1667 14.7539 11.9143 15.4995 11.8475C16.245 11.7806 16.9954 11.9014 17.6823 12.199C18.3692 12.4965 18.9706 12.9612 19.4319 13.5507C19.8931 14.1403 20.1994 14.8359 20.3228 15.5742L20.7414 18.0765C20.8835 18.9289 20.7762 19.8042 20.4325 20.5971C20.0889 21.39 19.5234 22.0667 18.8042 22.5458L16.837 23.8553C18.0426 25.9865 19.8043 27.7504 21.9342 28.9584L23.2496 26.9913C23.7285 26.2726 24.4047 25.7075 25.197 25.3638C25.9893 25.0201 26.864 24.9126 27.716 25.0541L30.2183 25.4726C30.9565 25.5961 31.6522 25.9024 32.2417 26.3636C32.8313 26.8248 33.296 27.4263 33.5935 28.1132C33.891 28.8 34.0119 29.5504 33.945 30.296C33.8782 31.0415 33.6257 31.7585 33.2108 32.3814L32.7982 33.0003C32.6628 33.2102 32.477 33.3829 32.2576 33.5025C32.0383 33.6221 31.7924 33.6848 31.5426 33.6849H28.5531C26.3936 33.6849 24.2552 33.2595 22.2601 32.433C20.265 31.6065 18.4523 30.3951 16.9254 28.8679C15.3985 27.3408 14.1875 25.5278 13.3613 23.5326C12.5352 21.5373 12.1102 19.3989 12.1106 17.2394V14.2498C12.111 13.9997 12.1741 13.7537 12.2943 13.5344C12.4144 13.315 12.5877 13.1293 12.7982 12.9942Z" fill="#232121"/>
</svg>
