<svg width="59" height="39" viewBox="0 0 59 39" fill="none" xmlns="http://www.w3.org/2000/svg">
<path d="M57.2472 6.1191C56.9162 4.93821 56.2714 3.86909 55.3813 3.0254C54.466 2.15576 53.3443 1.53369 52.1219 1.21789C47.5471 0.0120795 29.2187 0.0120798 29.2187 0.0120798C21.5779 -0.0748542 13.9388 0.307503 6.34482 1.15699C5.12241 1.49612 4.00277 2.13209 3.08546 3.00835C2.18415 3.87556 1.5313 4.94496 1.19027 6.11667C0.371026 10.5301 -0.0270171 15.0113 0.00150345 19.5C-0.0277284 23.9846 0.369338 28.4644 1.19027 32.8833C1.524 34.0501 2.1744 35.1147 3.07816 35.9746C3.98191 36.8345 5.10734 37.4557 6.34482 37.7845C10.9805 38.9879 29.2187 38.9879 29.2187 38.9879C36.8694 39.0749 44.5181 38.6926 52.1219 37.843C53.3443 37.5272 54.466 36.9051 55.3813 36.0355C56.2826 35.1756 56.9232 34.1062 57.2448 32.9418C58.0854 28.5301 58.4942 24.047 58.4652 19.556C58.5284 15.046 58.1202 10.5418 57.2472 6.11667V6.1191ZM23.3919 27.8408V11.1616L38.6411 19.5024L23.3919 27.8408Z" fill="#232121"/>
</svg>
